999
FreeCAD v1.0 39109 (Git) https://github.com/guerdat/ClassicFiat124Parts/blob/master/LICENSE.txt
  0
SECTION
  2
HEADER
  9
$ACADVER
  1
AC1014
  9
$ACADMAINTVER
 70
     9
  9
$DWGCODEPAGE
  3
ANSI_1252
  9
$TEXTSTYLE
  7
STANDARD
  9
$DIMSTYLE
  2
STANDARD
  9
$DIMTXSTY
  7
STANDARD
  9
$CMLSTYLE
  2
STANDARD
  9
$LUNITS
 70
2
  9
$INSUNITS
 70
4
  9
$PEXTMAX
 10
50
 20
50
 30
50
  9
$PEXTMIN
 10
0
 20
0
 30
0
  9
$HANDSEED
  5
FFFF
  0
ENDSEC
  0
SECTION
  2
CLASSES
  0
CLASS
  1
ACDBDICTIONARYWDFLT
  2
AcDbDictionaryWithDefault
  3
ObjectDBX Classes
 90
        0
280
     0
281
     0
  0
CLASS
  1
XRECORD
  2
AcDbXrecord
  3
ObjectDBX Classes
 90
        0
280
     0
281
     0
  0
CLASS
  1
LWPOLYLINE
  2
AcDbPolyline
  3
ObjectDBX Classes
 90
        0
280
     0
281
     1
  0
ENDSEC
  0
SECTION
  2
TABLES
  0
TABLE
  2
VPORT
  5
20
330
0
100
AcDbSymbolTable
 70
     1
  0
VPORT
  5
21
330
20
100
AcDbSymbolTableRecord
100
AcDbViewportTableRecord
  2
*ACTIVE
 70
     0
  0
ENDTAB
  0
TABLE
  2
LTYPE
  5
22
330
0
100
AcDbSymbolTable
 70
     1
  0
LTYPE
  5
23
330
21
100
AcDbSymbolTableRecord
100
AcDbLinetypeTableRecord
  2
BYBLOCK
 70
     0
  3

 72
    65
 73
     0
 40
0.0
  0
LTYPE
  5
24
330
21
100
AcDbSymbolTableRecord
100
AcDbLinetypeTableRecord
  2
BYLAYER
 70
     0
  3

 72
    65
 73
     0
 40
0.0
  0
LTYPE
  5
25
330
21
100
AcDbSymbolTableRecord
100
AcDbLinetypeTableRecord
  2
CONTINUOUS
 70
     0
  3
Solid line
 72
    65
 73
     0
 40
0.0
  0
ENDTAB
  0
TABLE
  2
LAYER
  5
A3A
330
0
100
AcDbSymbolTable
 70
3
  0
LAYER
  5
A3B
330
A3A
100
AcDbSymbolTableRecord
100
AcDbLayerTableRecord
  2
0
 70
   0
 62
   7
  6
CONTINUOUS
  0
LAYER
  5
A3C
330
A3A
100
AcDbSymbolTableRecord
100
AcDbLayerTableRecord
  2
none
 70
    0
 62
    7
  6
CONTINUOUS
  0
LAYER
  5
A3D
330
A3A
100
AcDbSymbolTableRecord
100
AcDbLayerTableRecord
  2
Sketch001
 70
    0
 62
    7
  6
CONTINUOUS
  0
ENDTAB
  0
TABLE
  2
STYLE
  5
70
330
0
100
AcDbSymbolTable
 70
     2
  0
STYLE
  5
71
330
70
100
AcDbSymbolTableRecord
100
AcDbTextStyleTableRecord
  2
STANDARD
 70
     0
 40
0.0
 41
1.0
 50
0.0
 71
     0
 42
2.5
  3
arial.ttf
  4

  0
STYLE
  5
72
330
70
100
AcDbSymbolTableRecord
100
AcDbTextStyleTableRecord
  2
ANNOTATIVE
 70
     0
 40
0.0
 41
1.0
 50
0.0
 71
     0
 42
2.5
  3
arial.ttf
  4

  0
ENDTAB
  0
TABLE
  2
VIEW
  5
73
330
0
100
AcDbSymbolTable
 70
     0
  0
ENDTAB
  0
TABLE
  2
UCS
  5
74
330
0
100
AcDbSymbolTable
 70
     0
  0
ENDTAB
  0
TABLE
  2
APPID
  5
75
330
0
100
AcDbSymbolTable
 70
     2
  0
APPID
  5
76
330
75
100
AcDbSymbolTableRecord
100
AcDbRegAppTableRecord
  2
ACAD
 70
     0
  0
APPID
  5
77
330
75
100
AcDbSymbolTableRecord
100
AcDbRegAppTableRecord
  2
ACADANNOTATIVE
 70
     0
  0
ENDTAB
  0
TABLE
  2
DIMSTYLE
  5
78
330
0
100
AcDbSymbolTable
 70
     2
  0
DIMSTYLE
105
79
330
78
100
AcDbSymbolTableRecord
100
AcDbDimStyleTableRecord
  2
STANDARD
 70
     0
  3

  4

  5

  6

  7

 40
0.0
 41
2.5
 42
0.625
 43
3.75
 44
1.25
 45
0.0
 46
0.0
 47
0.0
 48
0.0
140
2.5
141
2.5
142
0.0
143
0.03937007874016
144
1.0
145
0.0
146
1.0
147
0.625
 71
     0
 72
     0
 73
     0
 74
     0
 75
     0
 76
     0
 77
     1
 78
     8
170
     0
171
     3
172
     1
173
     0
174
     0
175
     0
176
     0
177
     0
178
     0
270
     2
271
     2
272
     2
273
     2
274
     3
340
71
275
     0
280
     0
281
     0
282
     0
283
     0
284
     8
285
     0
286
     0
287
     3
288
     0
  0
ENDTAB
  0
TABLE
  2
BLOCK_RECORD
  5
A01
330
0
100
AcDbSymbolTable
  70
5
  0
BLOCK_RECORD
  5
A02
330
A01
100
AcDbSymbolTableRecord
100
AcDbBlockTableRecord
  2
*MODEL_SPACE
  0
BLOCK_RECORD
  5
A03
330
A01
100
AcDbSymbolTableRecord
100
AcDbBlockTableRecord
  2
*PAPER_SPACE
  0
ENDTAB
  0
ENDSEC
  0
SECTION
  2
BLOCKS
  0
BLOCK
  5
A04
330
A02
100
AcDbEntity
  8
0
100
AcDbBlockBegin
  2
*MODEL_SPACE
 70
   0
 10
0
 20
0
 30
0
  3
*MODEL_SPACE
  1
 
  0
ENDBLK
  5
A05
330
A02
100
AcDbEntity
  8
0
100
AcDbBlockEnd
  0
BLOCK
  5
A06
330
A03
100
AcDbEntity
 67
1
  8
0
100
AcDbBlockBegin
  2
*PAPER_SPACE
 70
   0
 10
0
 20
0
 30
0
  3
*PAPER_SPACE
  1
 
  0
ENDBLK
  5
A07
330
A03
100
AcDbEntity
 67
    1
  8
0
100
AcDbBlockEnd
  0
ENDSEC
  0
SECTION
  2
ENTITIES
  0
CIRCLE
  5
A08
330
A02
100
AcDbEntity
  8
Sketch001
100
AcDbCircle
 10
-135.442032000
 20
-13.381312000
 30
0.000000000
 40
4.500000000
  0
CIRCLE
  5
A09
330
A02
100
AcDbEntity
  8
Sketch001
100
AcDbCircle
 10
-36.038589000
 20
21.332199000
 30
0.000000000
 40
4.500000000
  0
CIRCLE
  5
A0A
330
A02
100
AcDbEntity
  8
Sketch001
100
AcDbCircle
 10
41.173359000
 20
-13.381312000
 30
0.000000000
 40
4.500000000
  0
CIRCLE
  5
A0B
330
A02
100
AcDbEntity
  8
Sketch001
100
AcDbCircle
 10
115.945129000
 20
11.126423000
 30
0.000000000
 40
4.500000000
  0
CIRCLE
  5
A0C
330
A02
100
AcDbEntity
  8
Sketch001
100
AcDbCircle
 10
-209.950592000
 20
11.126423000
 30
0.000000000
 40
4.500000000
  0
ELLIPSE
  5
A0D
330
A02
100
AcDbEntity
  8
Sketch001
100
AcDbEllipse
 10
-1.520066629
 20
-2.970098996
 30
0.000000000
 11
0.131366900
 21
-20.602304677
 31
0.000000000
 40
0.851116744
 41
0.000000000
 42
6.283180000
  0
ELLIPSE
  5
A0E
330
A02
100
AcDbEntity
  8
Sketch001
100
AcDbEllipse
 10
-93.520066629
 20
-2.970098996
 30
0.000000000
 11
0.201587163
 21
-20.601737254
 31
0.000000000
 40
0.851116744
 41
0.000000000
 42
6.283180000
  0
ELLIPSE
  5
A0F
330
A02
100
AcDbEntity
  8
Sketch001
100
AcDbEllipse
 10
-180.520066629
 20
-2.970098996
 30
0.000000000
 11
0.153279697
 21
-20.602153300
 31
0.000000000
 40
0.851116744
 41
0.000000000
 42
6.283180000
  0
ELLIPSE
  5
A10
330
A02
100
AcDbEntity
  8
Sketch001
100
AcDbEllipse
 10
85.479933371
 20
-2.970098996
 30
0.000000000
 11
0.464483108
 21
-20.597487000
 31
0.000000000
 40
0.851116744
 41
0.000000000
 42
6.283180000
  0
ARC
  5
A11
330
A02
100
AcDbEntity
  8
Sketch001
100
AcDbCircle
 10
-137.209759991
 20
11.658317339
 30
0.000000000
 40
8.384764730
100
AcDbArc
 50
-130.481570682
 51
-47.034344207
  0
LINE
  5
A12
330
A02
100
AcDbEntity
  8
Sketch001
100
AcDbLine
 10
-131.495041000
 20
5.522662000
 30
0.000000000
 11
-113.639667486
 21
22.153068448
 31
0.000000000
  0
ARC
  5
A13
330
A02
100
AcDbEntity
  8
Sketch001
100
AcDbCircle
 10
-92.061426000
 20
-1.014589101
 30
0.000000000
 40
31.660083101
100
AcDbArc
 50
90.000000000
 51
132.965655793
  0
LINE
  5
A14
330
A02
100
AcDbEntity
  8
Sketch001
100
AcDbLine
 10
-92.061426000
 20
30.645494000
 30
0.000000000
 11
-2.011609000
 21
30.645494000
 31
0.000000000
  0
ARC
  5
A15
330
A02
100
AcDbEntity
  8
Sketch001
100
AcDbCircle
 10
-2.011609000
 20
3.734689844
 30
0.000000000
 40
26.910804156
100
AcDbArc
 50
48.259519108
 51
90.000000000
  0
LINE
  5
A16
330
A02
100
AcDbEntity
  8
Sketch001
100
AcDbLine
 10
15.904466269
 20
23.814670603
 30
0.000000000
 11
37.252934000
 21
4.766806000
 31
0.000000000
  0
ARC
  5
A17
330
A02
100
AcDbEntity
  8
Sketch001
100
AcDbCircle
 10
41.723586370
 20
9.777424242
 30
0.000000000
 40
6.715134234
100
AcDbArc
 50
-131.740480892
 51
-50.748286994
  0
LINE
  5
A18
330
A02
100
AcDbEntity
  8
Sketch001
100
AcDbLine
 10
45.972443052
 20
4.577400716
 30
0.000000000
 11
71.933157000
 21
25.789488000
 31
0.000000000
  0
ARC
  5
A19
330
A02
100
AcDbEntity
  8
Sketch001
100
AcDbCircle
 10
80.330344707
 20
15.512470698
 30
0.000000000
 40
13.271392015
100
AcDbArc
 50
90.015260644
 51
129.251713006
  0
LINE
  5
A1A
330
A02
100
AcDbEntity
  8
Sketch001
100
AcDbLine
 10
80.326809892
 20
28.783862242
 30
0.000000000
 11
90.504295000
 21
28.786573000
 31
0.000000000
  0
ARC
  5
A1B
330
A02
100
AcDbEntity
  8
Sketch001
100
AcDbCircle
 10
90.510740258
 20
4.587982767
 30
0.000000000
 40
24.198591091
100
AcDbArc
 50
77.219430519
 51
90.015260644
  0
LINE
  5
A1C
330
A02
100
AcDbEntity
  8
Sketch001
100
AcDbLine
 10
95.863899000
 20
28.187040000
 30
0.000000000
 11
121.104919000
 21
22.461422000
 31
0.000000000
  0
ARC
  5
A1D
330
A02
100
AcDbEntity
  8
Sketch001
100
AcDbCircle
 10
119.111498188
 20
13.673554109
 30
0.000000000
 40
9.011123604
100
AcDbArc
 50
-13.973796117
 51
77.219430519
  0
LINE
  5
A1E
330
A02
100
AcDbEntity
  8
Sketch001
100
AcDbLine
 10
120.303128000
 20
-18.854274286
 30
0.000000000
 11
127.855949000
 21
11.497565000
 31
0.000000000
  0
ARC
  5
A1F
330
A02
100
AcDbEntity
  8
Sketch001
100
AcDbCircle
 10
103.991007188
 20
-14.795128892
 30
0.000000000
 40
16.809579016
100
AcDbArc
 50
-82.387360534
 51
-13.973796117
  0
LINE
  5
A20
330
A02
100
AcDbEntity
  8
Sketch001
100
AcDbLine
 10
87.048447000
 20
-34.018603571
 30
0.000000000
 11
106.217857000
 21
-31.456554000
 31
0.000000000
  0
ARC
  5
A21
330
A02
100
AcDbEntity
  8
Sketch001
100
AcDbCircle
 10
83.885353392
 20
-10.352145701
 30
0.000000000
 40
23.876900748
100
AcDbArc
 50
-103.298164613
 51
-82.387360534
  0
LINE
  5
A22
330
A02
100
AcDbEntity
  8
Sketch001
100
AcDbLine
 10
48.097169000
 20
-26.428158023
 30
0.000000000
 11
78.393223000
 21
-33.588817000
 31
0.000000000
  0
ARC
  5
A23
330
A02
100
AcDbEntity
  8
Sketch001
100
AcDbCircle
 10
41.989901893
 20
-52.267413134
 30
0.000000000
 40
26.551192368
100
AcDbArc
 50
76.701835387
 51
103.488132011
  0
LINE
  5
A24
330
A02
100
AcDbEntity
  8
Sketch001
100
AcDbLine
 10
35.796997000
 20
-26.448549000
 30
0.000000000
 11
5.756536000
 21
-33.654044833
 31
0.000000000
  0
ARC
  5
A25
330
A02
100
AcDbEntity
  8
Sketch001
100
AcDbCircle
 10
-1.132327242
 20
-8.004417747
 30
0.000000000
 40
26.558610777
100
AcDbArc
 50
-169.154583142
 51
-74.966520492
  0
LINE
  5
A26
330
A02
100
AcDbEntity
  8
Sketch001
100
AcDbLine
 10
-29.564338000
 20
-1.701532000
 30
0.000000000
 11
-27.216559000
 21
-13.001683000
 31
0.000000000
  0
ARC
  5
A27
330
A02
100
AcDbEntity
  8
Sketch001
100
AcDbCircle
 10
-35.898715961
 20
-3.017595790
 30
0.000000000
 40
6.469649763
100
AcDbArc
 50
11.737092031
 51
50.054300098
  0
LINE
  5
A28
330
A02
100
AcDbEntity
  8
Sketch001
100
AcDbLine
 10
-34.596383575
 20
4.330540135
 30
0.000000000
 11
-31.744804037
 21
1.942382413
 31
0.000000000
  0
ARC
  5
A29
330
A02
100
AcDbEntity
  8
Sketch001
100
AcDbCircle
 10
-37.220952708
 20
1.196673571
 30
0.000000000
 40
4.087723423
100
AcDbArc
 50
50.054300098
 51
117.627116427
  0
LINE
  5
A2A
330
A02
100
AcDbEntity
  8
Sketch001
100
AcDbLine
 10
-39.116493000
 20
4.818332000
 30
0.000000000
 11
-59.592861000
 21
-5.898797000
 31
0.000000000
  0
ARC
  5
A2B
330
A02
100
AcDbEntity
  8
Sketch001
100
AcDbCircle
 10
-55.204958696
 20
-14.282413761
 30
0.000000000
 40
9.462489980
100
AcDbArc
 50
117.627116427
 51
169.038811599
  0
ARC
  5
A2C
330
A02
100
AcDbEntity
  8
Sketch001
100
AcDbCircle
 10
-91.753590316
 20
-7.203769191
 30
0.000000000
 40
27.765317936
100
AcDbArc
 50
-107.993800181
 51
-10.961188401
  0
LINE
  5
A2D
330
A02
100
AcDbEntity
  8
Sketch001
100
AcDbLine
 10
-129.740921000
 20
-26.150915000
 30
0.000000000
 11
-100.330688000
 21
-33.611084000
 31
0.000000000
  0
ARC
  5
A2E
330
A02
100
AcDbEntity
  8
Sketch001
100
AcDbCircle
 10
-137.905196616
 20
-58.336948339
 30
0.000000000
 40
33.205363097
100
AcDbArc
 50
75.766616222
 51
107.858173005
  0
LINE
  5
A2F
330
A02
100
AcDbEntity
  8
Sketch001
100
AcDbLine
 10
-171.995209000
 20
-34.434013000
 30
0.000000000
 11
-148.088014832
 21
-26.731468567
 31
0.000000000
  0
ARC
  5
A30
330
A02
100
AcDbEntity
  8
Sketch001
100
AcDbCircle
 10
-180.021154717
 20
-9.523044382
 30
0.000000000
 40
26.171972836
100
AcDbArc
 50
-148.547579205
 51
-72.141826995
  0
LINE
  5
A31
330
A02
100
AcDbEntity
  8
Sketch001
100
AcDbLine
 10
-212.682119000
 20
-6.283738000
 30
0.000000000
 11
-202.347778000
 21
-23.179327000
 31
0.000000000
  0
ARC
  5
A32
330
A02
100
AcDbEntity
  8
Sketch001
100
AcDbCircle
 10
-215.888157030
 20
-8.244740381
 30
0.000000000
 40
3.758219018
100
AcDbArc
 50
31.452420795
 51
71.697621841
  0
LINE
  5
A33
330
A02
100
AcDbEntity
  8
Sketch001
100
AcDbLine
 10
-214.707956509
 20
-4.676640478
 30
0.000000000
 11
-220.157365000
 21
-2.874170000
 31
0.000000000
  0
ARC
  5
A34
330
A02
100
AcDbEntity
  8
Sketch001
100
AcDbCircle
 10
-219.160821529
 20
0.138679596
 30
0.000000000
 40
3.173383301
100
AcDbArc
 50
176.495025770
 51
-108.302378159
  0
LINE
  5
A35
330
A02
100
AcDbEntity
  8
Sketch001
100
AcDbLine
 10
-221.535358000
 20
13.278221000
 30
0.000000000
 11
-222.328269000
 21
0.332685000
 31
0.000000000
  0
ARC
  5
A36
330
A02
100
AcDbEntity
  8
Sketch001
100
AcDbCircle
 10
-212.521400908
 20
12.726118273
 30
0.000000000
 40
9.030849344
100
AcDbArc
 50
103.134886614
 51
176.495025770
  0
LINE
  5
A37
330
A02
100
AcDbEntity
  8
Sketch001
100
AcDbLine
 10
-214.573610000
 20
21.520700566
 30
0.000000000
 11
-183.883536000
 21
28.682206000
 31
0.000000000
  0
ARC
  5
A38
330
A02
100
AcDbEntity
  8
Sketch001
100
AcDbCircle
 10
-178.874376128
 20
7.215841340
 30
0.000000000
 40
22.043060004
100
AcDbArc
 50
49.518429318
 51
103.134886614
  0
LINE
  5
A39
330
A02
100
AcDbEntity
  8
Sketch001
100
AcDbLine
 10
-142.653178000
 20
5.280741000
 30
0.000000000
 11
-164.563946000
 21
23.982119517
 31
0.000000000
  0
ENDSEC
  0
SECTION
  2
OBJECTS
  0
DICTIONARY
  5
F000
330
0
100
AcDbDictionary
  3
ACAD_GROUP
350
F001
  0
DICTIONARY
  5
F001
330
F000
100
AcDbDictionary
  0
ENDSEC
  0
EOF
