999
FreeCAD v0.19 24366 (Git)
  0
SECTION
  2
HEADER
  9
$ACADVER
  1
AC1014
  9
$ACADMAINTVER
 70
     9
  9
$DWGCODEPAGE
  3
ANSI_1252
  9
$TEXTSTYLE
  7
STANDARD
  9
$DIMSTYLE
  2
STANDARD
  9
$DIMTXSTY
  7
STANDARD
  9
$CMLSTYLE
  2
STANDARD
  9
$PEXTMAX
 10
50
 20
50
 30
50
  9
$PEXTMIN
 10
0
 20
0
 30
0
  9
$HANDSEED
  5
FFFF
  0
ENDSEC
  0
SECTION
  2
CLASSES
  0
CLASS
  1
ACDBDICTIONARYWDFLT
  2
AcDbDictionaryWithDefault
  3
ObjectDBX Classes
 90
        0
280
     0
281
     0
  0
CLASS
  1
XRECORD
  2
AcDbXrecord
  3
ObjectDBX Classes
 90
        0
280
     0
281
     0
  0
CLASS
  1
LWPOLYLINE
  2
AcDbPolyline
  3
ObjectDBX Classes
 90
        0
280
     0
281
     1
  0
ENDSEC
  0
SECTION
  2
TABLES
  0
TABLE
  2
VPORT
  5
20
330
0
100
AcDbSymbolTable
 70
     1
  0
VPORT
  5
21
330
20
100
AcDbSymbolTableRecord
100
AcDbViewportTableRecord
  2
*ACTIVE
 70
     0
  0
ENDTAB
  0
TABLE
  2
LTYPE
  5
22
330
0
100
AcDbSymbolTable
 70
     1
  0
LTYPE
  5
23
330
21
100
AcDbSymbolTableRecord
100
AcDbLinetypeTableRecord
  2
BYBLOCK
 70
     0
  3

 72
    65
 73
     0
 40
0.0
  0
LTYPE
  5
24
330
21
100
AcDbSymbolTableRecord
100
AcDbLinetypeTableRecord
  2
BYLAYER
 70
     0
  3

 72
    65
 73
     0
 40
0.0
  0
LTYPE
  5
25
330
21
100
AcDbSymbolTableRecord
100
AcDbLinetypeTableRecord
  2
CONTINUOUS
 70
     0
  3
Solid line
 72
    65
 73
     0
 40
0.0
  0
ENDTAB
  0
TABLE
  2
LAYER
  5
A24
330
0
100
AcDbSymbolTable
 70
3
  0
LAYER
  5
A25
330
A24
100
AcDbSymbolTableRecord
100
AcDbLayerTableRecord
  2
0
 70
   0
 62
   7
  6
CONTINUOUS
  0
LAYER
  5
A26
330
A24
100
AcDbSymbolTableRecord
100
AcDbLayerTableRecord
  2
none
 70
    0
 62
    7
  6
CONTINUOUS
  0
LAYER
  5
A27
330
A24
100
AcDbSymbolTableRecord
100
AcDbLayerTableRecord
  2
Sketch
 70
    0
 62
    7
  6
CONTINUOUS
  0
ENDTAB
  0
TABLE
  2
STYLE
  5
70
330
0
100
AcDbSymbolTable
 70
     2
  0
STYLE
  5
71
330
70
100
AcDbSymbolTableRecord
100
AcDbTextStyleTableRecord
  2
STANDARD
 70
     0
 40
0.0
 41
1.0
 50
0.0
 71
     0
 42
2.5
  3
arial.ttf
  4

  0
STYLE
  5
72
330
70
100
AcDbSymbolTableRecord
100
AcDbTextStyleTableRecord
  2
ANNOTATIVE
 70
     0
 40
0.0
 41
1.0
 50
0.0
 71
     0
 42
2.5
  3
arial.ttf
  4

  0
ENDTAB
  0
TABLE
  2
VIEW
  5
73
330
0
100
AcDbSymbolTable
 70
     0
  0
ENDTAB
  0
TABLE
  2
UCS
  5
74
330
0
100
AcDbSymbolTable
 70
     0
  0
ENDTAB
  0
TABLE
  2
APPID
  5
75
330
0
100
AcDbSymbolTable
 70
     2
  0
APPID
  5
76
330
75
100
AcDbSymbolTableRecord
100
AcDbRegAppTableRecord
  2
ACAD
 70
     0
  0
APPID
  5
77
330
75
100
AcDbSymbolTableRecord
100
AcDbRegAppTableRecord
  2
ACADANNOTATIVE
 70
     0
  0
ENDTAB
  0
TABLE
  2
DIMSTYLE
  5
78
330
0
100
AcDbSymbolTable
 70
     2
  0
DIMSTYLE
105
79
330
78
100
AcDbSymbolTableRecord
100
AcDbDimStyleTableRecord
  2
STANDARD
 70
     0
  3

  4

  5

  6

  7

 40
0.0
 41
2.5
 42
0.625
 43
3.75
 44
1.25
 45
0.0
 46
0.0
 47
0.0
 48
0.0
140
2.5
141
2.5
142
0.0
143
0.03937007874016
144
1.0
145
0.0
146
1.0
147
0.625
 71
     0
 72
     0
 73
     0
 74
     0
 75
     0
 76
     0
 77
     1
 78
     8
170
     0
171
     3
172
     1
173
     0
174
     0
175
     0
176
     0
177
     0
178
     0
270
     2
271
     2
272
     2
273
     2
274
     3
340
71
275
     0
280
     0
281
     0
282
     0
283
     0
284
     8
285
     0
286
     0
287
     3
288
     0
  0
ENDTAB
  0
TABLE
  2
BLOCK_RECORD
  5
A01
330
0
100
AcDbSymbolTable
  70
5
  0
BLOCK_RECORD
  5
A02
330
A01
100
AcDbSymbolTableRecord
100
AcDbBlockTableRecord
  2
*MODEL_SPACE
  0
BLOCK_RECORD
  5
A03
330
A01
100
AcDbSymbolTableRecord
100
AcDbBlockTableRecord
  2
*PAPER_SPACE
  0
ENDTAB
  0
ENDSEC
  0
SECTION
  2
BLOCKS
  0
BLOCK
  5
A04
330
A02
100
AcDbEntity
  8
0
100
AcDbBlockBegin
  2
*MODEL_SPACE
 70
   0
 10
0
 20
0
 30
0
  3
*MODEL_SPACE
  1
 
  0
ENDBLK
  5
A05
330
A02
100
AcDbEntity
  8
0
100
AcDbBlockEnd
  0
BLOCK
  5
A06
330
A03
100
AcDbEntity
 67
1
  8
0
100
AcDbBlockBegin
  2
*PAPER_SPACE
 70
   0
 10
0
 20
0
 30
0
  3
*PAPER_SPACE
  1
 
  0
ENDBLK
  5
A07
330
A03
100
AcDbEntity
 67
    1
  8
0
100
AcDbBlockEnd
  0
ENDSEC
  0
SECTION
  2
ENTITIES
  0
LINE
  5
A08
330
A02
100
AcDbEntity
  8
Sketch
100
AcDbLine
 10
-150.256
 20
156.602
 30
0
 11
-155.255
 21
156.514
 31
0
  0
ARC
  5
A09
330
A02
100
AcDbEntity
  8
Sketch
100
AcDbCircle
 10
-155.081
 20
146.516
 30
0
 40
10
100
AcDbArc
 50
91
 51
-179
  0
LINE
  5
A0A
330
A02
100
AcDbEntity
  8
Sketch
100
AcDbLine
 10
-165.079
 20
146.341
 30
0
 11
-158.43
 21
-234.601
 31
0
  0
ARC
  5
A0B
330
A02
100
AcDbEntity
  8
Sketch
100
AcDbCircle
 10
-148.431
 20
-234.426
 30
0
 40
10
100
AcDbArc
 50
-179
 51
-89
  0
LINE
  5
A0C
330
A02
100
AcDbEntity
  8
Sketch
100
AcDbLine
 10
-148.257
 20
-244.425
 30
0
 11
156.697
 21
-239.102
 31
0
  0
ARC
  5
A0D
330
A02
100
AcDbEntity
  8
Sketch
100
AcDbCircle
 10
156.522
 20
-229.103
 30
0
 40
10
100
AcDbArc
 50
-89
 51
1
  0
LINE
  5
A0E
330
A02
100
AcDbEntity
  8
Sketch
100
AcDbLine
 10
166.521
 20
-228.929
 30
0
 11
159.871
 21
152.013
 31
0
  0
ARC
  5
A0F
330
A02
100
AcDbEntity
  8
Sketch
100
AcDbCircle
 10
149.873
 20
151.839
 30
0
 40
10
100
AcDbArc
 50
1
 51
91
  0
LINE
  5
A10
330
A02
100
AcDbEntity
  8
Sketch
100
AcDbLine
 10
149.698
 20
161.837
 30
0
 11
144.699
 21
161.75
 31
0
  0
ARC
  5
A11
330
A02
100
AcDbEntity
  8
Sketch
100
AcDbCircle
 10
144.525
 20
171.748
 30
0
 40
10
100
AcDbArc
 50
-179
 51
-89
  0
LINE
  5
A12
330
A02
100
AcDbEntity
  8
Sketch
100
AcDbLine
 10
133.322
 20
240.563
 30
0
 11
134.526
 21
171.574
 31
0
  0
ARC
  5
A13
330
A02
100
AcDbEntity
  8
Sketch
100
AcDbCircle
 10
123.323
 20
240.389
 30
0
 40
10
100
AcDbArc
 50
1
 51
91
  0
LINE
  5
A14
330
A02
100
AcDbEntity
  8
Sketch
100
AcDbLine
 10
-36.8267
 20
247.595
 30
0
 11
123.149
 21
250.387
 31
0
  0
ARC
  5
A15
330
A02
100
AcDbEntity
  8
Sketch
100
AcDbCircle
 10
-36.6697
 20
238.596
 30
0
 40
9
100
AcDbArc
 50
91
 51
-179
  0
LINE
  5
A16
330
A02
100
AcDbEntity
  8
Sketch
100
AcDbLine
 10
-45.6508
 20
237.439
 30
0
 11
-45.6683
 21
238.439
 31
0
  0
ARC
  5
A17
330
A02
100
AcDbEntity
  8
Sketch
100
AcDbCircle
 10
-54.6495
 20
237.282
 30
0
 40
9
100
AcDbArc
 50
-89
 51
1
  0
LINE
  5
A18
330
A02
100
AcDbEntity
  8
Sketch
100
AcDbLine
 10
-131.481
 20
226.94
 30
0
 11
-54.4924
 21
228.284
 31
0
  0
ARC
  5
A19
330
A02
100
AcDbEntity
  8
Sketch
100
AcDbCircle
 10
-131.306
 20
216.941
 30
0
 40
10
100
AcDbArc
 50
91
 51
-179
  0
LINE
  5
A1A
330
A02
100
AcDbEntity
  8
Sketch
100
AcDbLine
 10
-140.432
 20
166.775
 30
0
 11
-141.305
 21
216.767
 31
0
  0
ARC
  5
A1B
330
A02
100
AcDbEntity
  8
Sketch
100
AcDbCircle
 10
-150.43
 20
166.6
 30
0
 40
10
100
AcDbArc
 50
-89
 51
1
  0
ARC
  5
A1C
330
A02
100
AcDbEntity
  8
Sketch
100
AcDbCircle
 10
-120.919
 20
-148.953
 30
0
 40
4.25
100
AcDbArc
 50
91
 51
-89
  0
LINE
  5
A1D
330
A02
100
AcDbEntity
  8
Sketch
100
AcDbLine
 10
-120.845
 20
-153.202
 30
0
 11
-111.846
 21
-153.045
 31
0
  0
ARC
  5
A1E
330
A02
100
AcDbEntity
  8
Sketch
100
AcDbCircle
 10
-111.92
 20
-148.796
 30
0
 40
4.25
100
AcDbArc
 50
-89
 51
91
  0
LINE
  5
A1F
330
A02
100
AcDbEntity
  8
Sketch
100
AcDbLine
 10
-120.993
 20
-144.704
 30
0
 11
-111.994
 21
-144.547
 31
0
  0
ARC
  5
A20
330
A02
100
AcDbEntity
  8
Sketch
100
AcDbCircle
 10
117.045
 20
-144.799
 30
0
 40
4.25
100
AcDbArc
 50
91
 51
-89
  0
LINE
  5
A21
330
A02
100
AcDbEntity
  8
Sketch
100
AcDbLine
 10
117.119
 20
-149.049
 30
0
 11
126.118
 21
-148.892
 31
0
  0
ARC
  5
A22
330
A02
100
AcDbEntity
  8
Sketch
100
AcDbCircle
 10
126.044
 20
-144.642
 30
0
 40
4.25
100
AcDbArc
 50
-89
 51
91
  0
LINE
  5
A23
330
A02
100
AcDbEntity
  8
Sketch
100
AcDbLine
 10
116.971
 20
-140.55
 30
0
 11
125.969
 21
-140.393
 31
0
  0
ENDSEC
  0
SECTION
  2
OBJECTS
  0
DICTIONARY
  5
F000
330
0
100
AcDbDictionary
  3
ACAD_GROUP
350
F001
  0
DICTIONARY
  5
F001
330
F000
100
AcDbDictionary
  0
ENDSEC
  0
EOF